<svg xmlns="http://www.w3.org/2000/svg" width="430" height="430" fill="none" viewBox="0 0 430 430"><path fill="#b26836" d="M187.275 272.271c.13 20.69-15.75 54.24-21.72 67.18a14.28 14.28 0 0 1-8.67 7.65 50.45 50.45 0 0 1-28.12 0 14.33 14.33 0 0 1-8.61-7.54c-6.05-12.84-22.33-46.35-22.46-67.15 0 0-8.21-52.88 5.47-57.07 9.66-2.95 25.28 28.56 27.4 33 7.904-.86 15.877-.86 23.78 0 2.12-4.4 17.74-35.91 27.39-33 13.72 4.19 5.54 56.93 5.54 56.93"/><path fill="#2ca58d" d="M401.805 173.801v38.51l-186.81-118.78-186.8 118.78v-38.51l186.8-118.77z"/><path fill="#646e78" d="M333.915 291.091q.138 1.252.14 2.51c0 25.25-22.08 54.14-49.31 54.14s-49.31-28.89-49.31-54.14q.003-1.258.14-2.51c-1.49-3.6-16.46-40.88-6.91-47.06 7-4.56 24 9.93 33.54 19a66.45 66.45 0 0 1 45.08 0c9.53-9.09 26.5-23.58 33.53-19 9.56 6.18-5.42 43.46-6.9 47.06"/><path fill="#b26836" d="M149.495 348.672a50.5 50.5 0 0 1-20.73-1.59 14.33 14.33 0 0 1-8.61-7.54c-6.05-12.82-22.33-46.33-22.46-67.13 0 0-8.21-52.88 5.47-57.07 2.65-.81 5.75 1 8.9 4.09-7.22 13.38-1.07 53-1.07 53 .1 20.75 16.38 54.31 22.43 67.13a14.33 14.33 0 0 0 8.61 7.54 42.4 42.4 0 0 0 7.46 1.57" opacity=".5" style="mix-blend-mode:multiply"/><path fill="#646e78" d="M291.395 347.211c-2.196.384-4.42.578-6.65.58-27.23 0-49.31-28.89-49.31-54.14q.003-1.26.14-2.51c-1.49-3.6-16.46-40.88-6.91-47.06 2.72-1.76 6.91-.68 11.59 1.83-5.73 9.62 7.24 41.89 8.62 45.23a24 24 0 0 0-.14 2.51c-.04 23.11 18.57 49.33 42.66 53.56" opacity=".5" style="mix-blend-mode:multiply"/><path stroke="#121331" stroke-linecap="round" stroke-linejoin="round" stroke-width="7" d="M54.505 195.301v178.88m320.61-178.88v180.99m-187.83-104.329c.12 20.68-15.76 54.23-21.73 67.17a14.26 14.26 0 0 1-8.66 7.65 50.5 50.5 0 0 1-28.13 0 14.35 14.35 0 0 1-8.61-7.57c-6-12.82-22.33-46.38-22.43-67.13 0 0-8.21-52.88 5.47-57.07 9.66-2.94 25.28 28.56 27.4 33 7.904-.85 15.876-.85 23.78 0 2.12-4.4 17.74-35.9 27.39-33 13.69 4.2 5.52 56.95 5.52 56.95m-41.01 50.259h-7.84m4.07 0v24.84m-114.31-173.58 186.81-118.77 186.8 118.77"/><path stroke="#121331" stroke-linecap="round" stroke-linejoin="round" stroke-width="7" d="m28.195 211.991 186.81-118.78 186.8 118.78M28.195 173.48v38.51m373.61-38.51v38.51m-67.88 78.781q.138 1.251.14 2.51c0 25.25-22.08 54.14-49.31 54.14s-49.31-28.89-49.31-54.14q.003-1.259.14-2.51c-1.49-3.6-16.46-40.88-6.91-47.06 7-4.56 24 9.93 33.54 19a66.44 66.44 0 0 1 45.08 0c9.53-9.09 26.5-23.58 33.53-19 9.56 6.18-5.42 43.5-6.9 47.06m-94.47 21.969-16.45 2.39m26.61 14.37-11.95 8.96m92.4-25.8 16.46 2.39m-26.62 14.372 11.95 8.96"/></svg>